<?xml version="1.0" encoding="UTF-8"?><svg width="32px" height="32px" viewBox="0 0 32 32" version="1.1" xmlns="http://www.w3.org/2000/svg" xmlns:xlink="http://www.w3.org/1999/xlink"><title>Twitter</title><defs></defs><g id="Symbols" stroke="none" stroke-width="1" fill="none" fill-rule="evenodd"><g id="Organisms-/-Footer" transform="translate(-57.000000, -34.000000)"><g id="Footer"><g id="Follow" transform="translate(1.000000, 0.000000)"><g id="Twitter" transform="translate(56.000000, 34.000000)"><rect id="Rectangle-2" fill="#1DA1F2" x="0" y="0" width="32" height="32" rx="16"></rect><g id="Logos-/-Twitter" transform="translate(8.000000, 9.333333)" fill="#FFFFFF"><path d="M15.0311668,3.66253236 C15.0311668,3.52042544 15.0281546,3.37902234 15.0213271,3.23825906 C15.691628,2.77508392 16.2743762,2.19712272 16.7340952,1.53905443 C16.1188829,1.80029826 15.4568821,1.97631633 14.7624172,2.05571962 C15.4712065,1.64948961 16.0154662,1.00658536 16.2721003,0.240321295 C15.6086269,0.616223213 14.874134,0.88968786 14.0921163,1.03691345 C13.4655917,0.398999892 12.5733967,0 11.5860182,0 C9.68991131,0 8.15224877,1.46982449 8.15224877,3.28157576 C8.15224877,3.53917255 8.18243707,3.78953922 8.24134109,4.02986052 C5.38804398,3.89274429 2.85778185,2.58678105 1.16469303,0.60105917 C0.869570524,1.08592466 0.69968599,1.64948961 0.69968599,2.25054878 C0.69968599,3.3891317 1.30586186,4.39424544 2.22750888,4.98225202 C1.66437311,4.96568034 1.13524102,4.81775094 0.672509819,4.57173513 C0.671773519,4.58542756 0.671773519,4.59911998 0.671773519,4.61351623 C0.671773519,6.20311746 1.85540954,7.53000325 3.42620559,7.83091673 C3.13784366,7.90590517 2.83442105,7.94634262 2.52115879,7.94634262 C2.30000098,7.94634262 2.08486746,7.92542008 1.8757582,7.88715806 C2.31278583,9.19100985 3.58022621,10.1398183 5.08308183,10.1665633 C3.90781285,11.0467816 2.42758173,11.5713808 0.81896662,11.5713808 C0.541983876,11.5713808 0.268682633,11.5562167 0,11.5258886 C1.51945585,12.4567178 3.32352518,13 5.26273908,13 C11.5777181,13 15.0311668,7.99900088 15.0311668,3.66253236 Z" id="Fill-1"></path></g></g></g></g></g></g></svg>