<?xml version="1.0" encoding="UTF-8"?><svg width="32px" height="32px" viewBox="0 0 32 32" version="1.1" xmlns="http://www.w3.org/2000/svg" xmlns:xlink="http://www.w3.org/1999/xlink"><title>About us</title><defs></defs><g id="Symbols" stroke="none" stroke-width="1" fill="none" fill-rule="evenodd"><g id="Organisms-/-Footer" transform="translate(-300.000000, -34.000000)" fill="#323232"><g id="Footer"><g id="About-us" transform="translate(281.000000, 0.000000)"><g id="Icons-/-About-us" transform="translate(19.000000, 34.000000)"><g id="Icons/About-us"><path d="M27.3124606,4.68647697 C24.2919088,1.66380026 20.2726518,0 15.9994688,0 C11.7262857,0 7.70809124,1.66486271 4.68647697,4.68647697 C1.66486271,7.70702879 0,11.7252233 0,15.9994688 C0,20.2715894 1.66486271,24.2897839 4.68647697,27.3124606 C7.70809124,30.3351373 11.7262857,31.9989375 15.9994688,31.9989375 C20.2737143,31.9989375 24.2908463,30.3351373 27.3124606,27.3124606 C30.3351373,24.2908463 32,20.2715894 32,15.9994688 C32,11.7273482 30.3340748,7.70809124 27.3124606,4.68647697 L27.3124606,4.68647697 Z M15.2323782,9.53763405 C15.3407484,9.03403167 15.7253561,8.59736379 16.3840765,8.2297553 C17.0427969,7.86214682 17.7238288,7.74102726 18.4282347,7.86427172 C18.8383412,7.93651848 19.1528271,8.15750855 19.3674425,8.52830439 C19.5841827,8.89910024 19.6564295,9.24864703 19.5767456,9.57694479 C19.4726253,10.0624855 19.143265,10.4874664 18.5971646,10.8550749 C17.9798798,11.2715562 17.3094724,11.4149872 16.5859424,11.2874929 C15.4724924,11.0920017 15.0209502,10.5087154 15.2334407,9.53763405 L15.2323782,9.53763405 Z M17.5336499,22.8788472 C16.0249676,23.7819317 14.6150935,24.1176666 13.3050898,23.8881769 C12.699492,23.7808692 12.2691988,23.5035692 12.0152728,23.0552143 C11.7624091,22.6089844 11.7007869,22.0745709 11.8304061,21.4509114 C11.9632126,20.8091902 12.3393207,19.8466085 12.9587304,18.565291 C13.57814,17.285036 13.8958133,16.594442 13.9128125,16.4988213 C14.0020585,15.9909692 13.8703144,15.7062319 13.5186427,15.6424848 C13.401773,15.6222982 13.033102,15.7689166 12.4136924,16.0823401 L11.8782164,15.1728809 C12.6038713,14.7160264 13.3295262,14.2602344 14.0541187,13.8033799 C15.0252,13.2084067 15.7200438,12.9279193 16.1365251,12.9619177 C16.7909957,13.0171652 17.2319134,13.2912779 17.4582157,13.7842558 C17.6834556,14.2772336 17.6940801,14.8690196 17.4911518,15.5596135 C17.0257977,16.707062 16.4871344,18.1732461 15.8687871,19.9581659 C15.7009197,20.7953783 15.9293469,21.269232 16.5561938,21.3786646 C16.8281815,21.426475 17.3689698,21.2203592 18.1774959,20.7581925 C18.8489658,20.3735848 19.4088781,19.9974767 19.8561705,19.6330555 L20.2864637,20.4660181 C19.5576214,21.403101 18.6396627,22.2105648 17.5336499,22.8809721 L17.5336499,22.8788472 Z" id="Shape-Copy-6"></path></g></g></g></g></g></g></svg>