<?xml version="1.0" encoding="UTF-8"?><svg width="32px" height="32px" viewBox="0 0 32 32" version="1.1" xmlns="http://www.w3.org/2000/svg" xmlns:xlink="http://www.w3.org/1999/xlink"><title>Connect</title><defs></defs><g id="Symbols" stroke="none" stroke-width="1" fill="none" fill-rule="evenodd"><g id="Organisms-/-Footer" transform="translate(-506.000000, -34.000000)"><g id="Footer"><g id="Connect" transform="translate(506.000000, 0.000000)"><g id="Group-5" transform="translate(0.000000, 34.000000)"><g id="Icons-/-Connect"><g id="Icons/Connect"><circle id="Oval-Copy-4" fill="#323232" cx="16" cy="16" r="16"></circle><path d="M14.378716,3.91040948 C15.3365625,3.3573965 16.8881062,3.35656946 17.8473852,3.91040948 L25.4008575,8.2714087 C26.358704,8.82442168 27.1351921,10.1676844 27.1351921,11.2753644 L27.1351921,19.9973629 C27.1351921,21.1033888 26.3601365,22.4474786 25.4008575,23.0013186 L17.8473852,27.3623178 C16.8895387,27.9153308 15.337995,27.9161578 14.378716,27.3623178 L6.82524373,23.0013186 C5.86739716,22.4483056 5.09090909,21.1050429 5.09090909,19.9973629 L5.09090909,11.2753644 C5.09090909,10.1693385 5.86596468,8.82524872 6.82524373,8.2714087 L14.378716,3.91040948 Z" id="Polygon-Copy-2" fill="#FFFFFF"></path><path d="M27.1241088,12.4536656 C27.1282916,10.7972973 25.9622365,10.1296192 24.5385126,10.9514773 L7.68407891,20.6808588 C6.25191076,21.5075915 6.24945444,22.846572 7.68863187,23.6773508 L13.513573,27.0398532 C14.9482556,27.8680374 17.2664634,27.870632 18.7153593,27.0317975 L24.4954894,23.6854064 C25.933674,22.8527732 27.1029307,20.8402281 27.1071265,19.1786705 L27.1241088,12.4536656 Z" id="Path-2-Copy-2" fill="#D8D8D8"></path></g></g></g></g></g></g></g></svg>