<?xml version="1.0" encoding="UTF-8"?><svg width="32px" height="32px" viewBox="0 0 32 32" version="1.1" xmlns="http://www.w3.org/2000/svg" xmlns:xlink="http://www.w3.org/1999/xlink"><title>Newsletters</title><defs></defs><g id="Symbols" stroke="none" stroke-width="1" fill="none" fill-rule="evenodd"><g id="Organisms-/-Footer" transform="translate(-412.000000, -34.000000)"><g id="Footer"><g id="Newsletters" transform="translate(382.000000, 0.000000)"><g id="Icons-/-Newsletters-circle" transform="translate(30.000000, 34.000000)"><circle id="Oval" fill="#323232" cx="16" cy="16" r="16"></circle><g id="Group" stroke-width="1" transform="translate(7.272727, 10.909091)" fill="#FFFFFF"><path d="M0.79529104,0.846818182 C1.25572269,1.08409091 7.65153695,4.49181818 7.89012426,4.61454545 C8.12871158,4.73727273 8.37148463,4.79454545 8.74820144,4.79454545 C9.12491825,4.79454545 9.3676913,4.73727273 9.60627861,4.61454545 C9.84486593,4.49181818 16.2406802,1.08409091 16.7011118,0.846818182 C16.8727273,0.760909091 17.1615435,0.605454545 17.2243296,0.429545455 C17.3331589,0.118636364 17.2159581,0 16.7513407,0 L8.74820144,0 L0.745062132,0 C0.280444735,0 0.16324395,0.122727273 0.27207325,0.429545455 C0.334859385,0.609545455 0.623675605,0.760909091 0.79529104,0.846818182 L0.79529104,0.846818182 Z" id="Shape"></path><path d="M17.0652714,1.03090909 C16.7220405,1.20272727 13.6413342,3.34636364 11.6028777,4.635 L15.0435579,8.41909091 C15.1272727,8.50090909 15.1649444,8.59909091 15.1189012,8.64818182 C15.0686723,8.69318182 14.959843,8.66863636 14.8719424,8.59090909 L10.7448005,5.18727273 C10.1211249,5.58 9.68162198,5.85 9.60627861,5.89090909 C9.28397646,6.05045455 9.05794637,6.07090909 8.74820144,6.07090909 C8.43845651,6.07090909 8.21242642,6.05045455 7.89012426,5.89090909 C7.81059516,5.85 7.37527796,5.58 6.75160235,5.18727273 L2.62446043,8.59090909 C2.54074559,8.67272727 2.42773054,8.69727273 2.37750164,8.64818182 C2.32727273,8.60318182 2.36494441,8.50090909 2.44865925,8.41909091 L5.8851537,4.635 C3.84669719,3.34636364 0.732504905,1.20272727 0.389274035,1.03090909 C0.0209287116,0.846818182 5.68434189e-14,1.06363636 5.68434189e-14,1.23136364 L5.68434189e-14,9.61772727 C5.68434189e-14,9.99818182 0.573446697,10.4727273 0.983649444,10.4727273 L8.74820144,10.4727273 L16.5127534,10.4727273 C16.9229562,10.4727273 17.412688,9.99409091 17.412688,9.61772727 L17.412688,1.23136364 C17.412688,1.05954545 17.4378025,0.846818182 17.0652714,1.03090909 L17.0652714,1.03090909 Z" id="Shape"></path></g></g></g></g></g></g></svg>